# xmcd
# 
# Track frame offsets:
#     182
#     15510
#     33502
#     46575
#     62010
#     82100
#     101572
#     121967
#     135122
#     157520
#     172572
#     186860
#     193110
# 
# Disc length: 2819
# 
# Revision: 10
# Processed by: cddbd v1.5.2PL0 Copyright (c) Steve Scherf et al.
# Submitted via: fre:ac v1.1beta1pre5
# 
DISCID=8f0b010d
DTITLE=Bródy János - Az utca másik oldalán
DYEAR=1994
DGENRE=Rock
TTITLE0=Az utcán (a másik oldalon)
TTITLE1=Véletlen találkozás
TTITLE2=Tangó lemondó
TTITLE3=Mit tehetnék érted
TTITLE4=Haggyá' má' békibe
TTITLE5=Santa Monica
TTITLE6=A földön járj
TTITLE7=Művészbejáró
TTITLE8=Őszinte bohóc
TTITLE9=27 éve már
TTITLE10=Régi dal
TTITLE11=Csak egy nap az élet
TTITLE12=Micimackó
EXTD=EMI-Quint, QUI 906051\n(P) 1994
EXTT0=Szörényi Levente - Bródy János
EXTT1=Bródy János
EXTT2=Bródy János
EXTT3=Bródy János
EXTT4=Bródy János
EXTT5=Bródy János
EXTT6=Bródy János
EXTT7=Bródy János
EXTT8=Tolcsvay László - Bródy János
EXTT9=Bródy János
EXTT10=Szörényi Szabolcs - Bródy János
EXTT11=Bródy János
EXTT12=Bródy János
PLAYORDER=
